<svg xmlns="http://www.w3.org/2000/svg" xmlns:xlink="http://www.w3.org/1999/xlink">

<!--    header-->

    <g id="moon">
        <rect fill="white"/>
        <path fill-rule="evenodd" clip-rule="evenodd" d="M8.23129 2.24048C9.24338 1.78695 10.1202 2.81145 9.80357 3.70098C8.72924 6.71928 9.38932 10.1474 11.6193 12.3765C13.8606 14.617 17.3114 15.2755 20.3395 14.1819C21.2206 13.8637 22.2173 14.7319 21.7817 15.7199C21.7688 15.7491 21.7558 15.7782 21.7427 15.8074C20.9674 17.5266 19.7272 19.1434 18.1227 20.2274C16.4125 21.3828 14.3957 22.0001 12.3316 22.0001H12.3306C9.93035 21.9975 7.6057 21.1603 5.75517 19.6321C3.90463 18.1039 2.64345 15.9797 2.18793 13.6237C1.73241 11.2677 2.11094 8.82672 3.2586 6.71917C4.34658 4.72121 6.17608 3.16858 8.20153 2.25386L8.23129 2.24048Z"/>
    </g>

    <g id="arrow">
        <path fill-rule="evenodd" clip-rule="evenodd"
              d="M1.75 10.5C1.75 10.0168 2.14176 9.625 2.62499 9.625H18.375C18.8582 9.625 19.25 10.0168 19.25 10.5C19.25 10.9833 18.8582 11.3751 18.375 11.3751H2.62499C2.14176 11.3751 1.75 10.9833 1.75 10.5Z"/>
        <path fill-rule="evenodd" clip-rule="evenodd"
              d="M12.5063 4.63128C12.848 4.28957 13.4021 4.28957 13.7438 4.63128L18.9938 9.88132C19.3354 10.2229 19.3354 10.777 18.9938 11.1187L13.7438 16.3687C13.4021 16.7104 12.848 16.7104 12.5063 16.3687C12.1646 16.027 12.1646 15.4729 12.5063 15.1313L17.1376 10.5L12.5063 5.86872C12.1646 5.52701 12.1646 4.973 12.5063 4.63128Z"/>
    </g>

    <g id="ps">
        <path d="M2 12.1333C2 8.58633 2 6.81283 2.69029 5.45806C3.29749 4.26637 4.26637 3.29749 5.45806 2.69029C6.81283 2 8.58633 2 12.1333 2H19.8667C23.4137 2 25.1872 2 26.5419 2.69029C27.7336 3.29749 28.7025 4.26637 29.3097 5.45806C30 6.81283 30 8.58633 30 12.1333V19.8667C30 23.4137 30 25.1872 29.3097 26.5419C28.7025 27.7336 27.7336 28.7025 26.5419 29.3097C25.1872 30 23.4137 30 19.8667 30H12.1333C8.58633 30 6.81283 30 5.45806 29.3097C4.26637 28.7025 3.29749 27.7336 2.69029 26.5419C2 25.1872 2 23.4137 2 19.8667V12.1333Z"
              fill="#001E36"/>
        <path d="M8 22.5162V10.2034C8 10.1197 8.035 10.0718 8.11667 10.0718C9.3223 10.0718 10.5274 10 11.7333 10C13.6902 10 15.809 10.6691 16.5517 12.7162C16.7267 13.2188 16.82 13.7333 16.82 14.2718C16.82 15.3009 16.5867 16.1504 16.12 16.8205C14.8164 18.6923 12.557 18.6632 10.5317 18.6632V22.5043C10.5475 22.618 10.4506 22.6718 10.3567 22.6718H8.14C8.04667 22.6718 8 22.6239 8 22.5162ZM10.5433 12.3812V16.4017C11.3464 16.4605 12.1867 16.4669 12.9583 16.2103C13.8102 15.9645 14.2767 15.2272 14.2767 14.3436C14.3003 13.5907 13.8901 12.8683 13.1917 12.5966C12.4294 12.2796 11.3662 12.2606 10.5433 12.3812Z"
              fill="#31A8FF"/>
        <path d="M24.0967 15.6074C23.7437 15.4213 23.3677 15.2852 22.979 15.2028C22.4796 15.0853 20.5098 14.6737 20.509 15.7037C20.5265 16.2787 21.4393 16.5604 21.8426 16.7247C23.2585 17.2108 24.8607 18.0797 24.8292 19.8264C24.8725 22.0008 22.7657 22.8701 20.9598 22.8703C20.0197 22.88 19.0403 22.7344 18.1799 22.3308C18.0977 22.2873 18.0449 22.1944 18.0484 22.0996V20.019C18.0391 19.9356 18.1287 19.8627 18.1987 19.9227C19.0417 20.4325 20.0409 20.6801 21.0162 20.6933C21.4467 20.6933 22.2999 20.6516 22.2935 20.019C22.2935 19.412 21.2728 19.1329 20.8659 18.9787C20.2761 18.7682 19.7169 18.4765 19.2036 18.1118C18.4862 17.6001 18.0362 16.7797 18.0484 15.8771C18.0442 13.8297 19.9835 12.9107 21.73 12.9103C22.5464 12.9035 23.4232 12.964 24.1832 13.2956C24.2925 13.3277 24.3151 13.4429 24.3147 13.546V15.4918C24.3216 15.6126 24.1875 15.6537 24.0967 15.6074Z"
              fill="#31A8FF"/>
    </g>

    <g id="ae">
        <path d="M2 12.1333C2 8.58633 2 6.81283 2.69029 5.45806C3.29749 4.26637 4.26637 3.29749 5.45806 2.69029C6.81283 2 8.58633 2 12.1333 2H19.8667C23.4137 2 25.1872 2 26.5419 2.69029C27.7336 3.29749 28.7025 4.26637 29.3097 5.45806C30 6.81283 30 8.58633 30 12.1333V19.8667C30 23.4137 30 25.1872 29.3097 26.5419C28.7025 27.7336 27.7336 28.7025 26.5419 29.3097C25.1872 30 23.4137 30 19.8667 30H12.1333C8.58633 30 6.81283 30 5.45806 29.3097C4.26637 28.7025 3.29749 27.7336 2.69029 26.5419C2 25.1872 2 23.4137 2 19.8667V12.1333Z" fill="#00005B"/>
        <path d="M13.7893 19.5638H9.4504L8.56759 22.3819C8.54308 22.4864 8.44685 22.5604 8.34218 22.5553H6.14454C6.01922 22.5553 5.97539 22.4847 6.01306 22.3434L9.76969 11.2926C9.80729 11.1771 9.84483 11.0641 9.88243 10.9163C9.93156 10.6592 9.95672 10.398 9.95756 10.1361C9.9468 10.0587 10.0136 9.99014 10.089 10.0012H13.0756C13.1631 10.0012 13.2131 10.0333 13.2258 10.0975L17.4897 22.3626C17.5272 22.4912 17.4896 22.5554 17.377 22.5553H14.9351C14.8495 22.565 14.7677 22.5063 14.7473 22.4204L13.7893 19.5638ZM10.1266 17.1877H13.0944C12.6068 15.5215 12.0565 13.8773 11.6105 12.1981C11.1051 13.9399 10.6384 15.5553 10.1266 17.1877Z" fill="#9999FF"/>
        <path d="M20.6608 18.4757C20.8335 19.9066 22.0351 20.5888 23.3656 20.5597C24.1159 20.545 24.9177 20.4285 25.6188 20.1448C25.6812 20.0937 25.7127 20.1256 25.7127 20.2412V22.0713C25.7186 22.1665 25.6788 22.2516 25.6 22.3025C24.7286 22.6983 23.7284 22.8177 22.7833 22.8025C19.9655 22.8025 18.0304 20.8171 18.0312 17.9285C18.0238 15.1911 19.7997 12.8817 22.5579 12.8817C24.896 12.8211 26.5147 14.693 26.5212 17.0231C26.5212 17.4474 26.4975 17.8733 26.4461 18.2945C26.4361 18.3813 26.3622 18.4487 26.277 18.4487C24.4097 18.4487 22.5333 18.4757 20.6608 18.4757ZM20.6608 16.7207C21.7015 16.7207 22.7482 16.7575 23.7882 16.7111C23.9445 16.6951 24.0606 16.6654 24.0606 16.5029C24.0389 15.6391 23.3099 14.9286 22.464 14.9617C21.442 14.8983 20.7879 15.7611 20.6608 16.7207Z" fill="#9999FF"/>
    </g>

    <g id="illustrator">
        <path d="M2 12.1333C2 8.58633 2 6.81283 2.69029 5.45806C3.29749 4.26637 4.26637 3.29749 5.45806 2.69029C6.81283 2 8.58633 2 12.1333 2H19.8667C23.4137 2 25.1872 2 26.5419 2.69029C27.7336 3.29749 28.7025 4.26637 29.3097 5.45806C30 6.81283 30 8.58633 30 12.1333V19.8667C30 23.4137 30 25.1872 29.3097 26.5419C28.7025 27.7336 27.7336 28.7025 26.5419 29.3097C25.1872 30 23.4137 30 19.8667 30H12.1333C8.58633 30 6.81283 30 5.45806 29.3097C4.26637 28.7025 3.29749 27.7336 2.69029 26.5419C2 25.1872 2 23.4137 2 19.8667V12.1333Z" fill="#330000"/>
        <path d="M15.5686 19.5963H11.2297L10.3469 22.409C10.3224 22.5135 10.2262 22.5875 10.1215 22.5823H7.92384C7.79851 22.5823 7.75469 22.5117 7.79236 22.3704L11.549 11.2738C11.5866 11.1582 11.6242 11.0266 11.6617 10.8789C11.7109 10.6218 11.736 10.3606 11.7369 10.0987C11.7261 10.0213 11.7941 9.95294 11.8683 9.96378H14.8549C14.9424 9.96378 14.9924 9.9959 15.0051 10.0601L19.269 22.3897C19.3065 22.5182 19.269 22.5824 19.1563 22.5823H16.7144C16.6288 22.5921 16.547 22.5334 16.5266 22.4475L15.5686 19.5963ZM11.9059 17.1689H14.8737C14.3861 15.5027 13.8358 13.8584 13.3898 12.1793C12.9086 13.8613 12.3836 15.5365 11.9059 17.1689Z" fill="#FF9A00"/>
        <path d="M21.8045 12.0058C21.6129 12.0137 21.4219 11.98 21.2438 11.907C21.0658 11.834 20.9048 11.7232 20.7714 11.582C20.6384 11.4346 20.535 11.2618 20.4673 11.0733C20.3996 10.8849 20.3689 10.6846 20.3769 10.4839C20.3701 10.2852 20.4042 10.0873 20.477 9.90305C20.5499 9.71881 20.6598 9.5524 20.7996 9.41468C20.938 9.27839 21.1014 9.17161 21.2804 9.10052C21.4593 9.02942 21.6502 8.99543 21.842 9.00049C22.2929 9.00049 22.6466 9.13856 22.9033 9.41468C23.0329 9.55818 23.1336 9.72648 23.1997 9.90995C23.2657 10.0934 23.2959 10.2885 23.2883 10.4839C23.2962 10.6853 23.2645 10.8864 23.1951 11.075C23.1258 11.2636 23.0201 11.436 22.8845 11.582C22.7428 11.7253 22.5736 11.8369 22.3878 11.9099C22.2019 11.9828 22.0033 12.0155 21.8045 12.0058ZM20.5084 22.3896V13.181C20.5084 13.0654 20.5583 13.0076 20.6587 13.0076H22.9691C23.0691 13.0076 23.1192 13.0654 23.1193 13.181V22.3896C23.1193 22.5182 23.0692 22.5824 22.9691 22.5823H20.6775C20.5648 22.5823 20.5084 22.5181 20.5084 22.3896Z" fill="#FF9A00"/>
    </g>

    <g id="figma">
        <path fill-rule="evenodd" clip-rule="evenodd" d="M16 16C16 13.7909 17.7909 12 20 12C22.2091 12 24 13.7909 24 16C24 18.2091 22.2091 20 20 20C17.7909 20 16 18.2091 16 16Z" fill="#1ABCFE"/>
        <path fill-rule="evenodd" clip-rule="evenodd" d="M8 24C8 21.7909 9.79086 20 12 20H16V24C16 26.2091 14.2091 28 12 28C9.79086 28 8 26.2091 8 24Z" fill="#0ACF83"/>
        <path fill-rule="evenodd" clip-rule="evenodd" d="M16 4V12H20C22.2091 12 24 10.2091 24 8C24 5.79086 22.2091 4 20 4H16Z" fill="#FF7262"/>
        <path fill-rule="evenodd" clip-rule="evenodd" d="M8 8C8 10.2091 9.79086 12 12 12H16V4H12C9.79086 4 8 5.79086 8 8Z" fill="#F24E1E"/>
        <path fill-rule="evenodd" clip-rule="evenodd" d="M8 16C8 18.2091 9.79086 20 12 20H16V12H12C9.79086 12 8 13.7909 8 16Z" fill="#A259FF"/>
    </g>


<!--    location-->
    <g id="whatsapp">
        <path d="M0 26L1.83763 19.327C0.701528 17.3683 0.10554 15.1502 0.111748 12.8826C0.111748 5.77709 5.92263 0 13.0559 0C16.52 0 19.7731 1.34078 22.213 3.77519C24.659 6.2096 26.0062 9.44724 26 12.8888C26 19.9943 20.1891 25.7714 13.0497 25.7714H13.0434C10.8768 25.7714 8.74737 25.2277 6.85386 24.202L0 26ZM7.1829 21.8726L7.57402 22.1074C9.2254 23.0836 11.1189 23.5965 13.0497 23.6027H13.0559C18.9847 23.6027 23.8147 18.8018 23.8147 12.895C23.8147 10.0342 22.6972 7.34648 20.6671 5.31987C18.637 3.29325 15.9303 2.18108 13.0559 2.18108C7.12702 2.1749 2.29704 6.97576 2.29704 12.8826C2.29704 14.903 2.86198 16.8741 3.94221 18.5794L4.19675 18.9872L3.11031 22.9354L7.1829 21.8726Z" fill="white"/>
        <path fill-rule="evenodd" clip-rule="evenodd" d="M9.82129 7.49537C9.57917 6.95782 9.32464 6.94546 9.09493 6.93928C8.90869 6.93311 8.6914 6.93311 8.47411 6.93311C8.25682 6.93311 7.90917 7.01343 7.61117 7.33472C7.31318 7.65601 6.48128 8.43453 6.48128 10.0225C6.48128 11.6042 7.64221 13.1365 7.80363 13.3528C7.96504 13.569 10.0448 16.9241 13.3289 18.2154C16.0605 19.2905 16.6193 19.0743 17.2091 19.0187C17.7988 18.963 19.1212 18.2401 19.3943 17.4863C19.6613 16.7325 19.6613 16.0899 19.5806 15.954C19.4999 15.8181 19.2826 15.7378 18.9598 15.5771C18.6369 15.4165 17.0476 14.638 16.7497 14.5267C16.4517 14.4217 16.2344 14.3661 16.0233 14.6874C15.806 15.0087 15.1852 15.7316 14.9989 15.9478C14.8127 16.1641 14.6202 16.1888 14.2974 16.0282C13.9746 15.8675 12.9316 15.5277 11.6962 14.4279C10.7339 13.5752 10.082 12.5187 9.89579 12.1974C9.70954 11.8761 9.87717 11.7031 10.0386 11.5424C10.1814 11.4003 10.3614 11.1655 10.5228 10.9802C10.6842 10.7948 10.7401 10.6589 10.8456 10.4426C10.9512 10.2264 10.9015 10.041 10.8208 9.88035C10.7401 9.72588 10.1069 8.13178 9.82129 7.49537Z" fill="white"/>
        <defs>
            <linearGradient id="paint0_linear_11_6316" x1="13.0025" y1="25.9975" x2="13.0025" y2="0" gradientUnits="userSpaceOnUse">
                <stop stop-color="#F9F9F9"/>
                <stop offset="1" stop-color="white"/>
            </linearGradient>
        </defs>
    </g>


    <g id="instagram">
        <path d="M13.0052 2.34253C9.53333 2.34253 9.12579 2.35801 7.75357 2.41992C6.48452 2.47668 5.79841 2.68823 5.33928 2.86882C4.73055 3.10617 4.29722 3.3848 3.84325 3.83886C3.38929 4.29292 3.10556 4.72633 2.87341 5.33519C2.69802 5.7944 2.48135 6.48065 2.4246 7.74995C2.3627 9.12245 2.34722 9.53007 2.34722 13.0026C2.34722 16.4751 2.3627 16.8827 2.4246 18.2552C2.48135 19.5245 2.69286 20.2108 2.87341 20.67C3.11071 21.2788 3.38929 21.7122 3.84325 22.1663C4.29722 22.6204 4.73055 22.9041 5.33928 23.1363C5.79841 23.3118 6.48452 23.5285 7.75357 23.5852C9.12579 23.6472 9.53333 23.6626 13.0052 23.6626C16.477 23.6626 16.8845 23.6472 18.2567 23.5852C19.5258 23.5285 20.2119 23.3169 20.671 23.1363C21.2798 22.899 21.7131 22.6204 22.1671 22.1663C22.621 21.7122 22.9048 21.2788 23.1369 20.67C23.3123 20.2108 23.529 19.5245 23.5857 18.2552C23.6476 16.8827 23.6631 16.4751 23.6631 13.0026C23.6631 9.53007 23.6476 9.12245 23.5857 7.74995C23.529 6.48065 23.3175 5.7944 23.1369 5.33519C22.8996 4.72633 22.621 4.29292 22.1671 3.83886C21.7131 3.3848 21.2798 3.10101 20.671 2.86882C20.2119 2.69339 19.5258 2.47668 18.2567 2.41992C16.8845 2.35285 16.4718 2.34253 13.0052 2.34253ZM13.0052 0C16.5337 0 16.9774 0.0154793 18.3651 0.0773963C19.7476 0.139313 20.6917 0.361183 21.5171 0.681087C22.3734 1.01131 23.0956 1.46021 23.8179 2.18258C24.5401 2.90494 24.9837 3.63247 25.319 4.48383C25.6389 5.30939 25.8607 6.25362 25.9226 7.6416C25.9845 9.02441 26 9.46815 26 12.9974C26 16.5267 25.9845 16.9704 25.9226 18.3584C25.8607 19.7412 25.6389 20.6855 25.319 21.5162C24.9889 22.3727 24.5401 23.0951 23.8179 23.8174C23.0956 24.5398 22.3683 24.9835 21.5171 25.3189C20.6917 25.6388 19.7476 25.8607 18.3599 25.9226C16.9722 25.9845 16.5337 26 13 26C9.46627 26 9.02778 25.9845 7.64008 25.9226C6.25754 25.8607 5.31349 25.6388 4.48294 25.3189C3.62659 24.9887 2.90436 24.5398 2.18214 23.8174C1.45992 23.0951 1.01627 22.3675 0.680952 21.5162C0.361111 20.6906 0.139286 19.7464 0.0773811 18.3584C0.0154762 16.9704 0 16.5319 0 12.9974C0 9.46299 0.0154762 9.02441 0.0773811 7.63644C0.139286 6.25362 0.361111 5.30939 0.680952 4.47867C1.01111 3.62215 1.45992 2.89978 2.18214 2.17742C2.90436 1.45505 3.63175 1.01131 4.48294 0.675928C5.30833 0.356023 6.25238 0.134154 7.64008 0.0722366C9.03294 0.0154793 9.47659 0 13.0052 0Z" fill="white"/>
        <path d="M13.0052 6.32568C16.6885 6.32568 19.6806 9.31318 19.6806 13.0024C19.6806 16.6916 16.6937 19.6791 13.0052 19.6791C9.31669 19.6791 6.32979 16.6916 6.32979 13.0024C6.32979 9.31318 9.31669 6.32568 13.0052 6.32568ZM13.0052 17.3314C15.3988 17.3314 17.3385 15.3914 17.3385 12.9972C17.3385 10.6031 15.3988 8.66305 13.0052 8.66305C10.6115 8.66305 8.67185 10.6031 8.67185 12.9972C8.67185 15.3914 10.6115 17.3314 13.0052 17.3314Z" fill="white"/>
        <path d="M6.06667 7.61562C5.20624 7.61562 4.50873 6.91784 4.50873 6.05708C4.50873 5.19632 5.20624 4.49854 6.06667 4.49854C6.92709 4.49854 7.6246 5.19632 7.6246 6.05708C7.6246 6.91784 6.92709 7.61562 6.06667 7.61562Z" fill="white"/>
    </g>

    <g id="goTop">
        <path d="M1.08333 23.8332H24.9167C25.233 23.8332 25.4926 23.9346 25.6956 24.1376C25.8985 24.3406 26 24.6002 26 24.9166C26 25.2329 25.8985 25.4926 25.6956 25.6956C25.4926 25.8985 25.233 26 24.9167 26H1.08333C0.767 26 0.507361 25.8985 0.304417 25.6956C0.101472 25.4926 0 25.2329 0 24.9166C0 24.6002 0.101472 24.3406 0.304417 24.1376C0.507361 23.9346 0.767 23.8332 1.08333 23.8332ZM14.0833 4.26436V19.5005H11.9167V4.02817L3.68983 12.2557L2.16667 10.7324L12.8982 0L23.6297 10.7324L22.0718 12.2557L14.0833 4.26436Z" fill="white" fill-opacity="0.96"/>
    </g>

<!--    services-->
    <g id="arrow">
        <path fill-rule="evenodd" clip-rule="evenodd" d="M1.75 10.5C1.75 10.0168 2.14176 9.625 2.62499 9.625H18.375C18.8582 9.625 19.25 10.0168 19.25 10.5C19.25 10.9833 18.8582 11.3751 18.375 11.3751H2.62499C2.14176 11.3751 1.75 10.9833 1.75 10.5Z" />
        <path fill-rule="evenodd" clip-rule="evenodd" d="M12.5063 4.63128C12.848 4.28957 13.4021 4.28957 13.7438 4.63128L18.9938 9.88132C19.3354 10.2229 19.3354 10.777 18.9938 11.1187L13.7438 16.3687C13.4021 16.7104 12.848 16.7104 12.5063 16.3687C12.1646 16.027 12.1646 15.4729 12.5063 15.1313L17.1376 10.5L12.5063 5.86872C12.1646 5.52701 12.1646 4.973 12.5063 4.63128Z" />
    </g>

    <g id="videoPlay">
        <path d="M36.5 4.5625C45.5307 4.79975 53.052 7.9243 59.0638 13.9362C65.0757 19.948 68.2002 27.4693 68.4375 36.5C68.2002 45.5307 65.0757 53.052 59.0638 59.0638C53.052 65.0757 45.5307 68.2002 36.5 68.4375C27.4693 68.2002 19.948 65.0757 13.9362 59.0638C7.9243 53.052 4.79975 45.5307 4.5625 36.5C4.79975 27.4693 7.9243 19.948 13.9362 13.9362C19.948 7.9243 27.4693 4.79975 36.5 4.5625ZM36.5 63.875C44.2471 63.6849 50.6985 61.0113 55.8541 55.8541C61.0097 50.697 63.6834 44.2456 63.875 36.5C63.6849 28.7529 61.0113 22.3015 55.8541 17.1459C50.697 11.9902 44.2456 9.31663 36.5 9.125C28.7529 9.3151 22.3015 11.9887 17.1459 17.1459C11.9902 22.303 9.31663 28.7544 9.125 36.5C9.3151 44.2471 11.9887 50.6985 17.1459 55.8541C22.303 61.0097 28.7544 63.6834 36.5 63.875ZM33.0781 46.1953L47.6918 36.5L33.0781 26.8047V46.1953ZM33.8629 21.8156L51.6133 33.6507C52.6109 34.364 53.1098 35.3145 53.1098 36.5023C53.1098 37.6901 52.6109 38.6406 51.6133 39.3538L33.8629 51.189C33.2926 51.5692 32.6987 51.7714 32.0812 51.7958C31.4638 51.8201 30.8813 51.6772 30.3338 51.3669C29.7863 51.0567 29.3468 50.6407 29.0152 50.1191C28.6837 49.5974 28.5171 49.0035 28.5156 48.3374V24.6694C28.5156 24.0033 28.6822 23.4094 29.0152 22.8878C29.3483 22.3661 29.7878 21.9502 30.3338 21.6399C30.8798 21.3297 31.4622 21.1867 32.0812 21.2111C32.7002 21.2354 33.2941 21.4377 33.8629 21.8179V21.8156Z" fill="#2157F2"/>
    </g>

    <g id="edit">
        <path d="M14.3814 48.6342L28.4021 56.7279L44.5896 28.6889L30.5689 20.5951L14.3814 48.6342ZM12.6471 52.9701L15.0312 63.6654L25.5092 60.3401L12.6471 52.9701ZM32.8814 16.5483L46.9021 24.642L51.0207 17.5588L37 9.46506L32.8814 16.5483ZM7.51562 51.2358L35.2656 3.17969L57.3061 15.8984L29.5561 63.9545L11.6342 69.5924L7.51562 51.2358ZM35.2656 69.5924V64.9674H67.6406V69.5924H35.2656Z" fill="#2157F2"/>
    </g>

    <g id="notebook">
        <path d="M25.0938 9.125V63.875H20.5312V9.125H13.6875V63.875H59.3125V9.125H25.0938ZM11.4062 4.5625H61.5938C62.2599 4.5625 62.8066 4.77618 63.234 5.20353C63.6613 5.63089 63.875 6.17763 63.875 6.84375V66.1562C63.875 66.8224 63.6613 67.3691 63.234 67.7965C62.8066 68.2238 62.2599 68.4375 61.5938 68.4375H11.4062C10.7401 68.4375 10.1934 68.2238 9.76603 67.7965C9.33868 67.3691 9.125 66.8224 9.125 66.1562V6.84375C9.125 6.17763 9.33868 5.63089 9.76603 5.20353C10.1934 4.77618 10.7401 4.5625 11.4062 4.5625ZM34.2188 18.25H47.9062C49.4271 18.25 50.1875 19.0104 50.1875 20.5312C50.1875 22.0521 49.4271 22.8125 47.9062 22.8125H34.2188C32.6979 22.8125 31.9375 22.0521 31.9375 20.5312C31.9375 19.0104 32.6979 18.25 34.2188 18.25ZM34.2188 31.9375H47.9062C49.4271 31.9375 50.1875 32.6979 50.1875 34.2188C50.1875 35.7396 49.4271 36.5 47.9062 36.5H34.2188C32.6979 36.5 31.9375 35.7396 31.9375 34.2188C31.9375 32.6979 32.6979 31.9375 34.2188 31.9375ZM34.2188 45.625H47.9062C49.4271 45.625 50.1875 46.3854 50.1875 47.9062C50.1875 49.4271 49.4271 50.1875 47.9062 50.1875H34.2188C32.6979 50.1875 31.9375 49.4271 31.9375 47.9062C31.9375 46.3854 32.6979 45.625 34.2188 45.625Z" fill="#2157F2"/>
    </g>


    <!--    contacts-->

    <g id="location">
        <path d="M20.01,36.5c-0.277,0-0.537-0.137-0.693-0.368L9.468,21.529c-1.171-1.861-1.79-3.993-1.79-6.162
		C7.678,8.824,13.206,3.5,20,3.5c6.795,0,12.322,5.324,12.322,11.867c0,2.164-0.612,4.284-1.77,6.129l-9.851,14.636
		C20.547,36.363,20.287,36.5,20.01,36.5L20.01,36.5z M20,5.17c-5.873,0-10.652,4.574-10.652,10.197c0,1.854,0.525,3.669,1.52,5.251
		l9.14,13.55l9.146-13.581c0.981-1.566,1.499-3.371,1.499-5.22C30.652,9.744,25.873,5.17,20,5.17L20,5.17z"/>
        <path d="M20,20.857c-3.159,0-5.728-2.482-5.728-5.535c0-3.051,2.569-5.534,5.728-5.534s5.729,2.483,5.729,5.534
		C25.729,18.375,23.158,20.857,20,20.857L20,20.857z M20,11.458c-2.237,0-4.057,1.734-4.057,3.864c0,2.13,1.82,3.865,4.057,3.865
		s4.058-1.734,4.058-3.865C24.058,13.192,22.236,11.458,20,11.458L20,11.458z"/>
    </g>

    <g id="phone">
        <g clip-path="url(#clip0_15_529)">
            <rect width="38" height="38" fill="none"/>
            <path d="M2.01394 6.87134C1.34749 10.0618 3.85967 13.8597 7.01471 17.0147C10.1698 20.1698 13.9676 22.682 17.1581 22.0155C19.782 21.4674 21.1215 20.0697 21.8754 18.8788C22.1355 18.4678 22.0042 17.9344 21.6143 17.6436L17.9224 14.8897C17.5243 14.5928 16.9685 14.633 16.6174 14.9842L14.6577 16.9438C14.6577 16.9438 12.7529 16.3246 10.2288 13.8006C7.70482 11.2766 7.08564 9.37175 7.08564 9.37175L9.04529 7.4121C9.39648 7.06091 9.43671 6.5052 9.13975 6.10709L6.38585 2.4151C6.09505 2.02525 5.56163 1.89395 5.15068 2.15407C3.9597 2.90794 2.56203 4.24747 2.01394 6.87134Z" stroke-linecap="round" stroke='#2157F2' stroke-linejoin="round"/>
        </g>
        <defs>
            <clipPath id="clip0_15_529">
                <rect width="38" height="38" fill="none"/>
            </clipPath>
        </defs>
    </g>

    <g id="email">
        <path d="M32 6H4a2 2 0 0 0-2 2v20a2 2 0 0 0 2 2h28a2 2 0 0 0 2-2V8a2 2 0 0 0-2-2Zm-1.54 22H5.66l7-7.24l-1.44-1.39L4 26.84V9.52l12.43 12.37a2 2 0 0 0 2.82 0L32 9.21v17.5l-7.36-7.36l-1.41 1.41ZM5.31 8h25.07L17.84 20.47Z"/><path fill="none" d="M0 0h36v36H0z"/>
    </g>



    <g id="instagramColor">
        <path fill-rule="evenodd" clip-rule="evenodd" d="M8.02703 16.5C8.02703 11.8205 11.8205 8.02703 16.5 8.02703C21.1795 8.02703 24.973 11.8205 24.973 16.5C24.973 21.1795 21.1795 24.973 16.5 24.973C11.8205 24.973 8.02703 21.1795 8.02703 16.5ZM16.5 22C13.4624 22 11 19.5376 11 16.5C11 13.4624 13.4624 11 16.5 11C19.5376 11 22 13.4624 22 16.5C22 19.5376 19.5376 22 16.5 22Z" fill="#D52D88" />
        <path fill-rule="evenodd" clip-rule="evenodd" d="M8.02703 16.5C8.02703 11.8205 11.8205 8.02703 16.5 8.02703C21.1795 8.02703 24.973 11.8205 24.973 16.5C24.973 21.1795 21.1795 24.973 16.5 24.973C11.8205 24.973 8.02703 21.1795 8.02703 16.5ZM16.5 22C13.4624 22 11 19.5376 11 16.5C11 13.4624 13.4624 11 16.5 11C19.5376 11 22 13.4624 22 16.5C22 19.5376 19.5376 22 16.5 22Z" fill="#D52D88"/>
        <path d="M25.3077 9.67225C26.4013 9.67225 27.2878 8.78581 27.2878 7.69228C27.2878 6.59874 26.4013 5.71224 25.3077 5.71224C24.2143 5.71224 23.3278 6.59874 23.3278 7.69228C23.3278 8.78581 24.2143 9.67225 25.3077 9.67225Z" fill="#D52D88"/>
        <path d="M25.3077 9.67225C26.4013 9.67225 27.2878 8.78581 27.2878 7.69228C27.2878 6.59874 26.4013 5.71224 25.3077 5.71224C24.2143 5.71224 23.3278 6.59874 23.3278 7.69228C23.3278 8.78581 24.2143 9.67225 25.3077 9.67225Z" fill="#D52D88"/>
        <path fill-rule="evenodd" clip-rule="evenodd" d="M16.5 0C12.0189 0 11.457 0.0189941 9.69707 0.0992932C7.94084 0.179396 6.74139 0.458347 5.69187 0.866261C4.60685 1.28786 3.68669 1.85205 2.76934 2.76934C1.85205 3.68669 1.28786 4.60685 0.866261 5.69187C0.458347 6.74139 0.179396 7.94084 0.0992932 9.69707C0.0189941 11.457 0 12.0189 0 16.5C0 20.9811 0.0189941 21.543 0.0992932 23.3029C0.179396 25.0592 0.458347 26.2586 0.866261 27.3081C1.28786 28.3931 1.85205 29.3133 2.76934 30.2307C3.68669 31.1479 4.60685 31.7121 5.69187 32.1338C6.74139 32.5417 7.94084 32.8206 9.69707 32.9007C11.457 32.981 12.0189 33 16.5 33C20.9811 33 21.543 32.981 23.3029 32.9007C25.0592 32.8206 26.2586 32.5417 27.3081 32.1338C28.3931 31.7121 29.3133 31.1479 30.2307 30.2307C31.1479 29.3133 31.7121 28.3931 32.1338 27.3081C32.5417 26.2586 32.8206 25.0592 32.9007 23.3029C32.981 21.543 33 20.9811 33 16.5C33 12.0189 32.981 11.457 32.9007 9.69707C32.8206 7.94084 32.5417 6.74139 32.1338 5.69187C31.7121 4.60685 31.1479 3.68669 30.2307 2.76934C29.3133 1.85205 28.3931 1.28786 27.3081 0.866261C26.2586 0.458347 25.0592 0.179396 23.3029 0.0992932C21.543 0.0189941 20.9811 0 16.5 0ZM16.5 2.97297C20.9057 2.97297 21.4276 2.9898 23.1674 3.06918C24.7762 3.14254 25.6498 3.41134 26.2312 3.6373C27.0014 3.93662 27.5511 4.29417 28.1284 4.87159C28.7058 5.44895 29.0634 5.99859 29.3627 6.76877C29.5887 7.35019 29.8575 8.22385 29.9308 9.83258C30.0102 11.5724 30.027 12.0943 30.027 16.5C30.027 20.9057 30.0102 21.4276 29.9308 23.1674C29.8575 24.7761 29.5887 25.6498 29.3627 26.2312C29.0634 27.0014 28.7058 27.5511 28.1284 28.1284C27.5511 28.7058 27.0014 29.0634 26.2312 29.3627C25.6498 29.5887 24.7762 29.8575 23.1674 29.9308C21.4278 30.0102 20.906 30.027 16.5 30.027C12.094 30.027 11.5723 30.0102 9.83259 29.9308C8.22385 29.8575 7.35019 29.5887 6.76878 29.3627C5.9986 29.0634 5.44895 28.7058 4.87159 28.1284C4.29424 27.5511 3.93663 27.0014 3.63731 26.2312C3.41134 25.6498 3.14254 24.7761 3.06919 23.1674C2.9898 21.4276 2.97297 20.9057 2.97297 16.5C2.97297 12.0943 2.9898 11.5724 3.06919 9.83258C3.14254 8.22385 3.41134 7.35019 3.63731 6.76877C3.93663 5.99859 4.29417 5.44895 4.87159 4.87159C5.44895 4.29417 5.9986 3.93662 6.76878 3.6373C7.35019 3.41134 8.22385 3.14254 9.83259 3.06918C11.5724 2.9898 12.0943 2.97297 16.5 2.97297Z" fill="#D52D88"/>
        <path fill-rule="evenodd" clip-rule="evenodd" d="M16.5 0C12.0189 0 11.457 0.0189941 9.69707 0.0992932C7.94084 0.179396 6.74139 0.458347 5.69187 0.866261C4.60685 1.28786 3.68669 1.85205 2.76934 2.76934C1.85205 3.68669 1.28786 4.60685 0.866261 5.69187C0.458347 6.74139 0.179396 7.94084 0.0992932 9.69707C0.0189941 11.457 0 12.0189 0 16.5C0 20.9811 0.0189941 21.543 0.0992932 23.3029C0.179396 25.0592 0.458347 26.2586 0.866261 27.3081C1.28786 28.3931 1.85205 29.3133 2.76934 30.2307C3.68669 31.1479 4.60685 31.7121 5.69187 32.1338C6.74139 32.5417 7.94084 32.8206 9.69707 32.9007C11.457 32.981 12.0189 33 16.5 33C20.9811 33 21.543 32.981 23.3029 32.9007C25.0592 32.8206 26.2586 32.5417 27.3081 32.1338C28.3931 31.7121 29.3133 31.1479 30.2307 30.2307C31.1479 29.3133 31.7121 28.3931 32.1338 27.3081C32.5417 26.2586 32.8206 25.0592 32.9007 23.3029C32.981 21.543 33 20.9811 33 16.5C33 12.0189 32.981 11.457 32.9007 9.69707C32.8206 7.94084 32.5417 6.74139 32.1338 5.69187C31.7121 4.60685 31.1479 3.68669 30.2307 2.76934C29.3133 1.85205 28.3931 1.28786 27.3081 0.866261C26.2586 0.458347 25.0592 0.179396 23.3029 0.0992932C21.543 0.0189941 20.9811 0 16.5 0ZM16.5 2.97297C20.9057 2.97297 21.4276 2.9898 23.1674 3.06918C24.7762 3.14254 25.6498 3.41134 26.2312 3.6373C27.0014 3.93662 27.5511 4.29417 28.1284 4.87159C28.7058 5.44895 29.0634 5.99859 29.3627 6.76877C29.5887 7.35019 29.8575 8.22385 29.9308 9.83258C30.0102 11.5724 30.027 12.0943 30.027 16.5C30.027 20.9057 30.0102 21.4276 29.9308 23.1674C29.8575 24.7761 29.5887 25.6498 29.3627 26.2312C29.0634 27.0014 28.7058 27.5511 28.1284 28.1284C27.5511 28.7058 27.0014 29.0634 26.2312 29.3627C25.6498 29.5887 24.7762 29.8575 23.1674 29.9308C21.4278 30.0102 20.906 30.027 16.5 30.027C12.094 30.027 11.5723 30.0102 9.83259 29.9308C8.22385 29.8575 7.35019 29.5887 6.76878 29.3627C5.9986 29.0634 5.44895 28.7058 4.87159 28.1284C4.29424 27.5511 3.93663 27.0014 3.63731 26.2312C3.41134 25.6498 3.14254 24.7761 3.06919 23.1674C2.9898 21.4276 2.97297 20.9057 2.97297 16.5C2.97297 12.0943 2.9898 11.5724 3.06919 9.83258C3.14254 8.22385 3.41134 7.35019 3.63731 6.76877C3.93663 5.99859 4.29417 5.44895 4.87159 4.87159C5.44895 4.29417 5.9986 3.93662 6.76878 3.6373C7.35019 3.41134 8.22385 3.14254 9.83259 3.06918C11.5724 2.9898 12.0943 2.97297 16.5 2.97297Z" fill="#D52D88"/>
        <defs>
            <linearGradient id="paint0_linear_11_4218" x1="1.92545" y1="1.73491" x2="12.3301" y2="41.9812" gradientUnits="userSpaceOnUse">
                <stop stop-color="#4E60D3"/>
                <stop offset="0.142763" stop-color="#913BAF"/>
                <stop offset="0.761458" stop-color="#D52D88"/>
                <stop offset="1" stop-color="#F26D4F"/>
            </linearGradient>
            <radialGradient id="paint1_radial_11_4218" cx="0" cy="0" r="1" gradientUnits="userSpaceOnUse" gradientTransform="translate(9.99053 33) rotate(32.1601) scale(30.8202 22.1803)">
                <stop stop-color="#FED276"/>
                <stop offset="0.17024" stop-color="#FDBD61" stop-opacity="0.975006"/>
                <stop offset="0.454081" stop-color="#F6804D"/>
                <stop offset="1" stop-color="#E83D5C" stop-opacity="0.01"/>
            </radialGradient>
            <linearGradient id="paint2_linear_11_4218" x1="1.92545" y1="1.73491" x2="12.3301" y2="41.9812" gradientUnits="userSpaceOnUse">
                <stop stop-color="#4E60D3"/>
                <stop offset="0.142763" stop-color="#913BAF"/>
                <stop offset="0.761458" stop-color="#D52D88"/>
                <stop offset="1" stop-color="#F26D4F"/>
            </linearGradient>
            <radialGradient id="paint3_radial_11_4218" cx="0" cy="0" r="1" gradientUnits="userSpaceOnUse" gradientTransform="translate(9.99053 33) rotate(32.1601) scale(30.8202 22.1803)">
                <stop stop-color="#FED276"/>
                <stop offset="0.17024" stop-color="#FDBD61" stop-opacity="0.975006"/>
                <stop offset="0.454081" stop-color="#F6804D"/>
                <stop offset="1" stop-color="#E83D5C" stop-opacity="0.01"/>
            </radialGradient>
            <linearGradient id="paint4_linear_11_4218" x1="1.92545" y1="1.73491" x2="12.3301" y2="41.9812" gradientUnits="userSpaceOnUse">
                <stop stop-color="#4E60D3"/>
                <stop offset="0.142763" stop-color="#913BAF"/>
                <stop offset="0.761458" stop-color="#D52D88"/>
                <stop offset="1" stop-color="#F26D4F"/>
            </linearGradient>
            <radialGradient id="paint5_radial_11_4218" cx="0" cy="0" r="1" gradientUnits="userSpaceOnUse" gradientTransform="translate(9.99053 33) rotate(32.1601) scale(30.8202 22.1803)">
                <stop stop-color="#FED276"/>
                <stop offset="0.17024" stop-color="#FDBD61" stop-opacity="0.975006"/>
                <stop offset="0.454081" stop-color="#F6804D"/>
                <stop offset="1" stop-color="#E83D5C" stop-opacity="0.01"/>
            </radialGradient>
        </defs>
    </g>

    <g id="whatsappColor">
        <path d="M11.1896 8.82463C11.4732 8.83655 11.787 8.8502 12.0851 9.53081C12.2888 9.99609 12.6316 10.8635 12.9048 11.5548C13.1061 12.0642 13.2696 12.4779 13.3118 12.5646C13.4113 12.769 13.4776 13.0077 13.3449 13.2806C13.3251 13.3214 13.3067 13.3599 13.2892 13.3967C13.1895 13.6057 13.1162 13.7592 12.9474 13.9622C12.8812 14.0415 12.8128 14.127 12.7444 14.2124C12.6071 14.384 12.4697 14.5557 12.3504 14.6779C12.1508 14.8817 11.9435 15.1031 12.1757 15.5118C12.4079 15.921 13.2065 17.2589 14.3894 18.3421C15.6602 19.5059 16.7642 19.9982 17.3248 20.2481C17.4349 20.2972 17.524 20.337 17.5894 20.3706C17.9874 20.575 18.2195 20.541 18.4516 20.2678C18.6838 19.9953 19.446 19.0749 19.7113 18.6661C19.9766 18.257 20.2419 18.3251 20.6067 18.4613C20.9715 18.5976 22.9278 19.5865 23.3258 19.7909C23.4034 19.8307 23.4759 19.8667 23.5432 19.9C23.8209 20.0377 24.0084 20.1307 24.0885 20.2678C24.188 20.4388 24.188 21.2567 23.8564 22.211C23.5248 23.1654 21.9001 24.0858 21.1705 24.1539C21.1003 24.1605 21.0305 24.1689 20.9587 24.1776C20.2844 24.259 19.4334 24.3618 16.3954 23.1313C12.6573 21.6172 10.1926 17.865 9.68339 17.0899C9.64164 17.0263 9.61303 16.9827 9.59795 16.9621L9.59352 16.956C9.37895 16.6615 7.97312 14.7317 7.97312 12.735C7.97312 10.8527 8.87389 9.86609 9.28834 9.41214C9.31666 9.38111 9.34271 9.35258 9.36605 9.32642C9.73058 8.91741 10.1618 8.81506 10.427 8.81506C10.4416 8.81506 10.4561 8.81506 10.4707 8.81506C10.7212 8.81502 10.9705 8.81499 11.1896 8.82463Z" fill="#20B038"/>
        <path fill-rule="evenodd" clip-rule="evenodd" d="M2.28113 24.519C0.867471 22.044 0.128514 19.239 0.128514 16.335C0.128514 7.326 7.29317 0 16.0643 0C20.3374 0 24.3213 1.716 27.3414 4.785C30.3293 7.887 32 11.979 32 16.368C32 25.377 24.8353 32.703 16.0643 32.703C13.3976 32.703 10.7631 32.043 8.4498 30.723L0 33L2.28113 24.519ZM4.8514 23.595L5.17269 24.09L3.82329 29.106L8.83534 27.753L9.31727 28.05C11.3414 29.304 13.6867 29.964 16.0643 29.964C23.3574 29.964 29.3012 23.859 29.3012 16.368C29.3012 12.738 27.9197 9.306 25.4137 6.732C22.9398 4.191 19.5984 2.772 16.0643 2.772C8.77108 2.772 2.82731 8.844 2.82731 16.368C2.82731 18.909 3.53414 21.417 4.8514 23.595Z" fill="#20B038"/>
        <defs>
            <linearGradient id="paint0_linear_11_4219" x1="0" y1="16.5018" x2="32" y2="16.5018" gradientUnits="userSpaceOnUse">
                <stop stop-color="#20B038"/>
                <stop offset="1" stop-color="#60D66A"/>
            </linearGradient>
            <linearGradient id="paint1_linear_11_4219" x1="0" y1="16.5018" x2="32" y2="16.5018" gradientUnits="userSpaceOnUse">
                <stop stop-color="#20B038"/>
                <stop offset="1" stop-color="#60D66A"/>
            </linearGradient>
        </defs>
    </g>

    <g id="telegramColor">
        <path d="M16.5118 33.0642C25.618 33.0642 33 25.6822 33 16.576C33 7.46989 25.618 0.0878906 16.5118 0.0878906C7.40568 0.0878906 0.0236816 7.46989 0.0236816 16.576C0.0236816 25.6822 7.40568 33.0642 16.5118 33.0642Z" fill="#28A8E9"/>
        <path fill-rule="evenodd" clip-rule="evenodd" d="M7.48718 16.402C12.2938 14.3078 15.499 12.9272 17.1027 12.2602C21.6816 10.3557 22.6331 10.0248 23.2532 10.0139C23.3896 10.0115 23.6946 10.0453 23.8922 10.2056C24.059 10.3409 24.1049 10.5238 24.1268 10.6521C24.1488 10.7804 24.1761 11.0728 24.1544 11.3012C23.9063 13.9084 22.8326 20.2353 22.2864 23.1553C22.0552 24.3909 21.6001 24.8052 21.1596 24.8458C20.2021 24.9339 19.475 24.213 18.5476 23.6051C17.0964 22.6538 16.2766 22.0616 14.868 21.1334C13.2401 20.0606 14.2954 19.471 15.2231 18.5074C15.4659 18.2553 19.6847 14.418 19.7663 14.0699C19.7765 14.0263 19.786 13.8641 19.6896 13.7784C19.5932 13.6927 19.4509 13.722 19.3482 13.7453C19.2027 13.7783 16.8844 15.3106 12.3934 18.3421C11.7354 18.794 11.1394 19.0142 10.6054 19.0026C10.0166 18.9899 8.8842 18.6698 8.04234 18.3961C7.00977 18.0605 6.1891 17.883 6.26056 17.313C6.29779 17.0161 6.70666 16.7124 7.48718 16.402Z" fill="white"/>
        <defs>
            <linearGradient id="paint0_linear_11_4220" x1="16.5118" y1="0.0878906" x2="16.5118" y2="32.8196" gradientUnits="userSpaceOnUse">
                <stop stop-color="#2AABEE"/>
                <stop offset="1" stop-color="#229ED9"/>
            </linearGradient>
        </defs>
    </g>
</svg>