<svg xmlns="http://www.w3.org/2000/svg" xmlns:xlink="http://www.w3.org/1999/xlink">


    <g id="arrow">
        <path fill-rule="evenodd" clip-rule="evenodd"
              d="M1.75 10.5C1.75 10.0168 2.14176 9.625 2.62499 9.625H18.375C18.8582 9.625 19.25 10.0168 19.25 10.5C19.25 10.9833 18.8582 11.3751 18.375 11.3751H2.62499C2.14176 11.3751 1.75 10.9833 1.75 10.5Z"/>
        <path fill-rule="evenodd" clip-rule="evenodd"
              d="M12.5063 4.63128C12.848 4.28957 13.4021 4.28957 13.7438 4.63128L18.9938 9.88132C19.3354 10.2229 19.3354 10.777 18.9938 11.1187L13.7438 16.3687C13.4021 16.7104 12.848 16.7104 12.5063 16.3687C12.1646 16.027 12.1646 15.4729 12.5063 15.1313L17.1376 10.5L12.5063 5.86872C12.1646 5.52701 12.1646 4.973 12.5063 4.63128Z"/>
    </g>

    <g id="ps">
        <path d="M2 12.1333C2 8.58633 2 6.81283 2.69029 5.45806C3.29749 4.26637 4.26637 3.29749 5.45806 2.69029C6.81283 2 8.58633 2 12.1333 2H19.8667C23.4137 2 25.1872 2 26.5419 2.69029C27.7336 3.29749 28.7025 4.26637 29.3097 5.45806C30 6.81283 30 8.58633 30 12.1333V19.8667C30 23.4137 30 25.1872 29.3097 26.5419C28.7025 27.7336 27.7336 28.7025 26.5419 29.3097C25.1872 30 23.4137 30 19.8667 30H12.1333C8.58633 30 6.81283 30 5.45806 29.3097C4.26637 28.7025 3.29749 27.7336 2.69029 26.5419C2 25.1872 2 23.4137 2 19.8667V12.1333Z"
              fill="#001E36"/>
        <path d="M8 22.5162V10.2034C8 10.1197 8.035 10.0718 8.11667 10.0718C9.3223 10.0718 10.5274 10 11.7333 10C13.6902 10 15.809 10.6691 16.5517 12.7162C16.7267 13.2188 16.82 13.7333 16.82 14.2718C16.82 15.3009 16.5867 16.1504 16.12 16.8205C14.8164 18.6923 12.557 18.6632 10.5317 18.6632V22.5043C10.5475 22.618 10.4506 22.6718 10.3567 22.6718H8.14C8.04667 22.6718 8 22.6239 8 22.5162ZM10.5433 12.3812V16.4017C11.3464 16.4605 12.1867 16.4669 12.9583 16.2103C13.8102 15.9645 14.2767 15.2272 14.2767 14.3436C14.3003 13.5907 13.8901 12.8683 13.1917 12.5966C12.4294 12.2796 11.3662 12.2606 10.5433 12.3812Z"
              fill="#31A8FF"/>
        <path d="M24.0967 15.6074C23.7437 15.4213 23.3677 15.2852 22.979 15.2028C22.4796 15.0853 20.5098 14.6737 20.509 15.7037C20.5265 16.2787 21.4393 16.5604 21.8426 16.7247C23.2585 17.2108 24.8607 18.0797 24.8292 19.8264C24.8725 22.0008 22.7657 22.8701 20.9598 22.8703C20.0197 22.88 19.0403 22.7344 18.1799 22.3308C18.0977 22.2873 18.0449 22.1944 18.0484 22.0996V20.019C18.0391 19.9356 18.1287 19.8627 18.1987 19.9227C19.0417 20.4325 20.0409 20.6801 21.0162 20.6933C21.4467 20.6933 22.2999 20.6516 22.2935 20.019C22.2935 19.412 21.2728 19.1329 20.8659 18.9787C20.2761 18.7682 19.7169 18.4765 19.2036 18.1118C18.4862 17.6001 18.0362 16.7797 18.0484 15.8771C18.0442 13.8297 19.9835 12.9107 21.73 12.9103C22.5464 12.9035 23.4232 12.964 24.1832 13.2956C24.2925 13.3277 24.3151 13.4429 24.3147 13.546V15.4918C24.3216 15.6126 24.1875 15.6537 24.0967 15.6074Z"
              fill="#31A8FF"/>
    </g>

    <g id="ae">
        <path d="M2 12.1333C2 8.58633 2 6.81283 2.69029 5.45806C3.29749 4.26637 4.26637 3.29749 5.45806 2.69029C6.81283 2 8.58633 2 12.1333 2H19.8667C23.4137 2 25.1872 2 26.5419 2.69029C27.7336 3.29749 28.7025 4.26637 29.3097 5.45806C30 6.81283 30 8.58633 30 12.1333V19.8667C30 23.4137 30 25.1872 29.3097 26.5419C28.7025 27.7336 27.7336 28.7025 26.5419 29.3097C25.1872 30 23.4137 30 19.8667 30H12.1333C8.58633 30 6.81283 30 5.45806 29.3097C4.26637 28.7025 3.29749 27.7336 2.69029 26.5419C2 25.1872 2 23.4137 2 19.8667V12.1333Z" fill="#00005B"/>
        <path d="M13.7893 19.5638H9.4504L8.56759 22.3819C8.54308 22.4864 8.44685 22.5604 8.34218 22.5553H6.14454C6.01922 22.5553 5.97539 22.4847 6.01306 22.3434L9.76969 11.2926C9.80729 11.1771 9.84483 11.0641 9.88243 10.9163C9.93156 10.6592 9.95672 10.398 9.95756 10.1361C9.9468 10.0587 10.0136 9.99014 10.089 10.0012H13.0756C13.1631 10.0012 13.2131 10.0333 13.2258 10.0975L17.4897 22.3626C17.5272 22.4912 17.4896 22.5554 17.377 22.5553H14.9351C14.8495 22.565 14.7677 22.5063 14.7473 22.4204L13.7893 19.5638ZM10.1266 17.1877H13.0944C12.6068 15.5215 12.0565 13.8773 11.6105 12.1981C11.1051 13.9399 10.6384 15.5553 10.1266 17.1877Z" fill="#9999FF"/>
        <path d="M20.6608 18.4757C20.8335 19.9066 22.0351 20.5888 23.3656 20.5597C24.1159 20.545 24.9177 20.4285 25.6188 20.1448C25.6812 20.0937 25.7127 20.1256 25.7127 20.2412V22.0713C25.7186 22.1665 25.6788 22.2516 25.6 22.3025C24.7286 22.6983 23.7284 22.8177 22.7833 22.8025C19.9655 22.8025 18.0304 20.8171 18.0312 17.9285C18.0238 15.1911 19.7997 12.8817 22.5579 12.8817C24.896 12.8211 26.5147 14.693 26.5212 17.0231C26.5212 17.4474 26.4975 17.8733 26.4461 18.2945C26.4361 18.3813 26.3622 18.4487 26.277 18.4487C24.4097 18.4487 22.5333 18.4757 20.6608 18.4757ZM20.6608 16.7207C21.7015 16.7207 22.7482 16.7575 23.7882 16.7111C23.9445 16.6951 24.0606 16.6654 24.0606 16.5029C24.0389 15.6391 23.3099 14.9286 22.464 14.9617C21.442 14.8983 20.7879 15.7611 20.6608 16.7207Z" fill="#9999FF"/>
    </g>

    <g id="illustrator">
        <path d="M2 12.1333C2 8.58633 2 6.81283 2.69029 5.45806C3.29749 4.26637 4.26637 3.29749 5.45806 2.69029C6.81283 2 8.58633 2 12.1333 2H19.8667C23.4137 2 25.1872 2 26.5419 2.69029C27.7336 3.29749 28.7025 4.26637 29.3097 5.45806C30 6.81283 30 8.58633 30 12.1333V19.8667C30 23.4137 30 25.1872 29.3097 26.5419C28.7025 27.7336 27.7336 28.7025 26.5419 29.3097C25.1872 30 23.4137 30 19.8667 30H12.1333C8.58633 30 6.81283 30 5.45806 29.3097C4.26637 28.7025 3.29749 27.7336 2.69029 26.5419C2 25.1872 2 23.4137 2 19.8667V12.1333Z" fill="#330000"/>
        <path d="M15.5686 19.5963H11.2297L10.3469 22.409C10.3224 22.5135 10.2262 22.5875 10.1215 22.5823H7.92384C7.79851 22.5823 7.75469 22.5117 7.79236 22.3704L11.549 11.2738C11.5866 11.1582 11.6242 11.0266 11.6617 10.8789C11.7109 10.6218 11.736 10.3606 11.7369 10.0987C11.7261 10.0213 11.7941 9.95294 11.8683 9.96378H14.8549C14.9424 9.96378 14.9924 9.9959 15.0051 10.0601L19.269 22.3897C19.3065 22.5182 19.269 22.5824 19.1563 22.5823H16.7144C16.6288 22.5921 16.547 22.5334 16.5266 22.4475L15.5686 19.5963ZM11.9059 17.1689H14.8737C14.3861 15.5027 13.8358 13.8584 13.3898 12.1793C12.9086 13.8613 12.3836 15.5365 11.9059 17.1689Z" fill="#FF9A00"/>
        <path d="M21.8045 12.0058C21.6129 12.0137 21.4219 11.98 21.2438 11.907C21.0658 11.834 20.9048 11.7232 20.7714 11.582C20.6384 11.4346 20.535 11.2618 20.4673 11.0733C20.3996 10.8849 20.3689 10.6846 20.3769 10.4839C20.3701 10.2852 20.4042 10.0873 20.477 9.90305C20.5499 9.71881 20.6598 9.5524 20.7996 9.41468C20.938 9.27839 21.1014 9.17161 21.2804 9.10052C21.4593 9.02942 21.6502 8.99543 21.842 9.00049C22.2929 9.00049 22.6466 9.13856 22.9033 9.41468C23.0329 9.55818 23.1336 9.72648 23.1997 9.90995C23.2657 10.0934 23.2959 10.2885 23.2883 10.4839C23.2962 10.6853 23.2645 10.8864 23.1951 11.075C23.1258 11.2636 23.0201 11.436 22.8845 11.582C22.7428 11.7253 22.5736 11.8369 22.3878 11.9099C22.2019 11.9828 22.0033 12.0155 21.8045 12.0058ZM20.5084 22.3896V13.181C20.5084 13.0654 20.5583 13.0076 20.6587 13.0076H22.9691C23.0691 13.0076 23.1192 13.0654 23.1193 13.181V22.3896C23.1193 22.5182 23.0692 22.5824 22.9691 22.5823H20.6775C20.5648 22.5823 20.5084 22.5181 20.5084 22.3896Z" fill="#FF9A00"/>
    </g>

    <g id="figma">
        <path fill-rule="evenodd" clip-rule="evenodd" d="M16 16C16 13.7909 17.7909 12 20 12C22.2091 12 24 13.7909 24 16C24 18.2091 22.2091 20 20 20C17.7909 20 16 18.2091 16 16Z" fill="#1ABCFE"/>
        <path fill-rule="evenodd" clip-rule="evenodd" d="M8 24C8 21.7909 9.79086 20 12 20H16V24C16 26.2091 14.2091 28 12 28C9.79086 28 8 26.2091 8 24Z" fill="#0ACF83"/>
        <path fill-rule="evenodd" clip-rule="evenodd" d="M16 4V12H20C22.2091 12 24 10.2091 24 8C24 5.79086 22.2091 4 20 4H16Z" fill="#FF7262"/>
        <path fill-rule="evenodd" clip-rule="evenodd" d="M8 8C8 10.2091 9.79086 12 12 12H16V4H12C9.79086 4 8 5.79086 8 8Z" fill="#F24E1E"/>
        <path fill-rule="evenodd" clip-rule="evenodd" d="M8 16C8 18.2091 9.79086 20 12 20H16V12H12C9.79086 12 8 13.7909 8 16Z" fill="#A259FF"/>
    </g>


<!--    location-->
    <g id="whatsapp">
        <path d="M0 26L1.83763 19.327C0.701528 17.3683 0.10554 15.1502 0.111748 12.8826C0.111748 5.77709 5.92263 0 13.0559 0C16.52 0 19.7731 1.34078 22.213 3.77519C24.659 6.2096 26.0062 9.44724 26 12.8888C26 19.9943 20.1891 25.7714 13.0497 25.7714H13.0434C10.8768 25.7714 8.74737 25.2277 6.85386 24.202L0 26ZM7.1829 21.8726L7.57402 22.1074C9.2254 23.0836 11.1189 23.5965 13.0497 23.6027H13.0559C18.9847 23.6027 23.8147 18.8018 23.8147 12.895C23.8147 10.0342 22.6972 7.34648 20.6671 5.31987C18.637 3.29325 15.9303 2.18108 13.0559 2.18108C7.12702 2.1749 2.29704 6.97576 2.29704 12.8826C2.29704 14.903 2.86198 16.8741 3.94221 18.5794L4.19675 18.9872L3.11031 22.9354L7.1829 21.8726Z" fill="white"/>
        <path fill-rule="evenodd" clip-rule="evenodd" d="M9.82129 7.49537C9.57917 6.95782 9.32464 6.94546 9.09493 6.93928C8.90869 6.93311 8.6914 6.93311 8.47411 6.93311C8.25682 6.93311 7.90917 7.01343 7.61117 7.33472C7.31318 7.65601 6.48128 8.43453 6.48128 10.0225C6.48128 11.6042 7.64221 13.1365 7.80363 13.3528C7.96504 13.569 10.0448 16.9241 13.3289 18.2154C16.0605 19.2905 16.6193 19.0743 17.2091 19.0187C17.7988 18.963 19.1212 18.2401 19.3943 17.4863C19.6613 16.7325 19.6613 16.0899 19.5806 15.954C19.4999 15.8181 19.2826 15.7378 18.9598 15.5771C18.6369 15.4165 17.0476 14.638 16.7497 14.5267C16.4517 14.4217 16.2344 14.3661 16.0233 14.6874C15.806 15.0087 15.1852 15.7316 14.9989 15.9478C14.8127 16.1641 14.6202 16.1888 14.2974 16.0282C13.9746 15.8675 12.9316 15.5277 11.6962 14.4279C10.7339 13.5752 10.082 12.5187 9.89579 12.1974C9.70954 11.8761 9.87717 11.7031 10.0386 11.5424C10.1814 11.4003 10.3614 11.1655 10.5228 10.9802C10.6842 10.7948 10.7401 10.6589 10.8456 10.4426C10.9512 10.2264 10.9015 10.041 10.8208 9.88035C10.7401 9.72588 10.1069 8.13178 9.82129 7.49537Z" fill="white"/>
        <defs>
            <linearGradient id="paint0_linear_11_6316" x1="13.0025" y1="25.9975" x2="13.0025" y2="0" gradientUnits="userSpaceOnUse">
                <stop stop-color="#F9F9F9"/>
                <stop offset="1" stop-color="white"/>
            </linearGradient>
        </defs>
    </g>


    <g id="instagram">
        <path d="M13.0052 2.34253C9.53333 2.34253 9.12579 2.35801 7.75357 2.41992C6.48452 2.47668 5.79841 2.68823 5.33928 2.86882C4.73055 3.10617 4.29722 3.3848 3.84325 3.83886C3.38929 4.29292 3.10556 4.72633 2.87341 5.33519C2.69802 5.7944 2.48135 6.48065 2.4246 7.74995C2.3627 9.12245 2.34722 9.53007 2.34722 13.0026C2.34722 16.4751 2.3627 16.8827 2.4246 18.2552C2.48135 19.5245 2.69286 20.2108 2.87341 20.67C3.11071 21.2788 3.38929 21.7122 3.84325 22.1663C4.29722 22.6204 4.73055 22.9041 5.33928 23.1363C5.79841 23.3118 6.48452 23.5285 7.75357 23.5852C9.12579 23.6472 9.53333 23.6626 13.0052 23.6626C16.477 23.6626 16.8845 23.6472 18.2567 23.5852C19.5258 23.5285 20.2119 23.3169 20.671 23.1363C21.2798 22.899 21.7131 22.6204 22.1671 22.1663C22.621 21.7122 22.9048 21.2788 23.1369 20.67C23.3123 20.2108 23.529 19.5245 23.5857 18.2552C23.6476 16.8827 23.6631 16.4751 23.6631 13.0026C23.6631 9.53007 23.6476 9.12245 23.5857 7.74995C23.529 6.48065 23.3175 5.7944 23.1369 5.33519C22.8996 4.72633 22.621 4.29292 22.1671 3.83886C21.7131 3.3848 21.2798 3.10101 20.671 2.86882C20.2119 2.69339 19.5258 2.47668 18.2567 2.41992C16.8845 2.35285 16.4718 2.34253 13.0052 2.34253ZM13.0052 0C16.5337 0 16.9774 0.0154793 18.3651 0.0773963C19.7476 0.139313 20.6917 0.361183 21.5171 0.681087C22.3734 1.01131 23.0956 1.46021 23.8179 2.18258C24.5401 2.90494 24.9837 3.63247 25.319 4.48383C25.6389 5.30939 25.8607 6.25362 25.9226 7.6416C25.9845 9.02441 26 9.46815 26 12.9974C26 16.5267 25.9845 16.9704 25.9226 18.3584C25.8607 19.7412 25.6389 20.6855 25.319 21.5162C24.9889 22.3727 24.5401 23.0951 23.8179 23.8174C23.0956 24.5398 22.3683 24.9835 21.5171 25.3189C20.6917 25.6388 19.7476 25.8607 18.3599 25.9226C16.9722 25.9845 16.5337 26 13 26C9.46627 26 9.02778 25.9845 7.64008 25.9226C6.25754 25.8607 5.31349 25.6388 4.48294 25.3189C3.62659 24.9887 2.90436 24.5398 2.18214 23.8174C1.45992 23.0951 1.01627 22.3675 0.680952 21.5162C0.361111 20.6906 0.139286 19.7464 0.0773811 18.3584C0.0154762 16.9704 0 16.5319 0 12.9974C0 9.46299 0.0154762 9.02441 0.0773811 7.63644C0.139286 6.25362 0.361111 5.30939 0.680952 4.47867C1.01111 3.62215 1.45992 2.89978 2.18214 2.17742C2.90436 1.45505 3.63175 1.01131 4.48294 0.675928C5.30833 0.356023 6.25238 0.134154 7.64008 0.0722366C9.03294 0.0154793 9.47659 0 13.0052 0Z" fill="white"/>
        <path d="M13.0052 6.32568C16.6885 6.32568 19.6806 9.31318 19.6806 13.0024C19.6806 16.6916 16.6937 19.6791 13.0052 19.6791C9.31669 19.6791 6.32979 16.6916 6.32979 13.0024C6.32979 9.31318 9.31669 6.32568 13.0052 6.32568ZM13.0052 17.3314C15.3988 17.3314 17.3385 15.3914 17.3385 12.9972C17.3385 10.6031 15.3988 8.66305 13.0052 8.66305C10.6115 8.66305 8.67185 10.6031 8.67185 12.9972C8.67185 15.3914 10.6115 17.3314 13.0052 17.3314Z" fill="white"/>
        <path d="M6.06667 7.61562C5.20624 7.61562 4.50873 6.91784 4.50873 6.05708C4.50873 5.19632 5.20624 4.49854 6.06667 4.49854C6.92709 4.49854 7.6246 5.19632 7.6246 6.05708C7.6246 6.91784 6.92709 7.61562 6.06667 7.61562Z" fill="white"/>
    </g>

    <g id="goTop">
        <path d="M1.08333 23.8332H24.9167C25.233 23.8332 25.4926 23.9346 25.6956 24.1376C25.8985 24.3406 26 24.6002 26 24.9166C26 25.2329 25.8985 25.4926 25.6956 25.6956C25.4926 25.8985 25.233 26 24.9167 26H1.08333C0.767 26 0.507361 25.8985 0.304417 25.6956C0.101472 25.4926 0 25.2329 0 24.9166C0 24.6002 0.101472 24.3406 0.304417 24.1376C0.507361 23.9346 0.767 23.8332 1.08333 23.8332ZM14.0833 4.26436V19.5005H11.9167V4.02817L3.68983 12.2557L2.16667 10.7324L12.8982 0L23.6297 10.7324L22.0718 12.2557L14.0833 4.26436Z" fill="white" fill-opacity="0.96"/>
    </g>

<!--    services-->
    <g id="arrow">
        <path fill-rule="evenodd" clip-rule="evenodd" d="M1.75 10.5C1.75 10.0168 2.14176 9.625 2.62499 9.625H18.375C18.8582 9.625 19.25 10.0168 19.25 10.5C19.25 10.9833 18.8582 11.3751 18.375 11.3751H2.62499C2.14176 11.3751 1.75 10.9833 1.75 10.5Z" />
        <path fill-rule="evenodd" clip-rule="evenodd" d="M12.5063 4.63128C12.848 4.28957 13.4021 4.28957 13.7438 4.63128L18.9938 9.88132C19.3354 10.2229 19.3354 10.777 18.9938 11.1187L13.7438 16.3687C13.4021 16.7104 12.848 16.7104 12.5063 16.3687C12.1646 16.027 12.1646 15.4729 12.5063 15.1313L17.1376 10.5L12.5063 5.86872C12.1646 5.52701 12.1646 4.973 12.5063 4.63128Z" />
    </g>

    <g id="videoPlay">
        <path d="M36.5 4.5625C45.5307 4.79975 53.052 7.9243 59.0638 13.9362C65.0757 19.948 68.2002 27.4693 68.4375 36.5C68.2002 45.5307 65.0757 53.052 59.0638 59.0638C53.052 65.0757 45.5307 68.2002 36.5 68.4375C27.4693 68.2002 19.948 65.0757 13.9362 59.0638C7.9243 53.052 4.79975 45.5307 4.5625 36.5C4.79975 27.4693 7.9243 19.948 13.9362 13.9362C19.948 7.9243 27.4693 4.79975 36.5 4.5625ZM36.5 63.875C44.2471 63.6849 50.6985 61.0113 55.8541 55.8541C61.0097 50.697 63.6834 44.2456 63.875 36.5C63.6849 28.7529 61.0113 22.3015 55.8541 17.1459C50.697 11.9902 44.2456 9.31663 36.5 9.125C28.7529 9.3151 22.3015 11.9887 17.1459 17.1459C11.9902 22.303 9.31663 28.7544 9.125 36.5C9.3151 44.2471 11.9887 50.6985 17.1459 55.8541C22.303 61.0097 28.7544 63.6834 36.5 63.875ZM33.0781 46.1953L47.6918 36.5L33.0781 26.8047V46.1953ZM33.8629 21.8156L51.6133 33.6507C52.6109 34.364 53.1098 35.3145 53.1098 36.5023C53.1098 37.6901 52.6109 38.6406 51.6133 39.3538L33.8629 51.189C33.2926 51.5692 32.6987 51.7714 32.0812 51.7958C31.4638 51.8201 30.8813 51.6772 30.3338 51.3669C29.7863 51.0567 29.3468 50.6407 29.0152 50.1191C28.6837 49.5974 28.5171 49.0035 28.5156 48.3374V24.6694C28.5156 24.0033 28.6822 23.4094 29.0152 22.8878C29.3483 22.3661 29.7878 21.9502 30.3338 21.6399C30.8798 21.3297 31.4622 21.1867 32.0812 21.2111C32.7002 21.2354 33.2941 21.4377 33.8629 21.8179V21.8156Z" fill="#2157F2"/>
    </g>

    <g id="edit">
        <path d="M14.3814 48.6342L28.4021 56.7279L44.5896 28.6889L30.5689 20.5951L14.3814 48.6342ZM12.6471 52.9701L15.0312 63.6654L25.5092 60.3401L12.6471 52.9701ZM32.8814 16.5483L46.9021 24.642L51.0207 17.5588L37 9.46506L32.8814 16.5483ZM7.51562 51.2358L35.2656 3.17969L57.3061 15.8984L29.5561 63.9545L11.6342 69.5924L7.51562 51.2358ZM35.2656 69.5924V64.9674H67.6406V69.5924H35.2656Z" fill="#2157F2"/>
    </g>

    <g id="notebook">
        <path d="M25.0938 9.125V63.875H20.5312V9.125H13.6875V63.875H59.3125V9.125H25.0938ZM11.4062 4.5625H61.5938C62.2599 4.5625 62.8066 4.77618 63.234 5.20353C63.6613 5.63089 63.875 6.17763 63.875 6.84375V66.1562C63.875 66.8224 63.6613 67.3691 63.234 67.7965C62.8066 68.2238 62.2599 68.4375 61.5938 68.4375H11.4062C10.7401 68.4375 10.1934 68.2238 9.76603 67.7965C9.33868 67.3691 9.125 66.8224 9.125 66.1562V6.84375C9.125 6.17763 9.33868 5.63089 9.76603 5.20353C10.1934 4.77618 10.7401 4.5625 11.4062 4.5625ZM34.2188 18.25H47.9062C49.4271 18.25 50.1875 19.0104 50.1875 20.5312C50.1875 22.0521 49.4271 22.8125 47.9062 22.8125H34.2188C32.6979 22.8125 31.9375 22.0521 31.9375 20.5312C31.9375 19.0104 32.6979 18.25 34.2188 18.25ZM34.2188 31.9375H47.9062C49.4271 31.9375 50.1875 32.6979 50.1875 34.2188C50.1875 35.7396 49.4271 36.5 47.9062 36.5H34.2188C32.6979 36.5 31.9375 35.7396 31.9375 34.2188C31.9375 32.6979 32.6979 31.9375 34.2188 31.9375ZM34.2188 45.625H47.9062C49.4271 45.625 50.1875 46.3854 50.1875 47.9062C50.1875 49.4271 49.4271 50.1875 47.9062 50.1875H34.2188C32.6979 50.1875 31.9375 49.4271 31.9375 47.9062C31.9375 46.3854 32.6979 45.625 34.2188 45.625Z" fill="#2157F2"/>
    </g>
</svg>