<svg xmlns="http://www.w3.org/2000/svg" xmlns:xlink="http://www.w3.org/1999/xlink">


    <g id="arrow">
        <path fill-rule="evenodd" clip-rule="evenodd"
              d="M1.75 10.5C1.75 10.0168 2.14176 9.625 2.62499 9.625H18.375C18.8582 9.625 19.25 10.0168 19.25 10.5C19.25 10.9833 18.8582 11.3751 18.375 11.3751H2.62499C2.14176 11.3751 1.75 10.9833 1.75 10.5Z"/>
        <path fill-rule="evenodd" clip-rule="evenodd"
              d="M12.5063 4.63128C12.848 4.28957 13.4021 4.28957 13.7438 4.63128L18.9938 9.88132C19.3354 10.2229 19.3354 10.777 18.9938 11.1187L13.7438 16.3687C13.4021 16.7104 12.848 16.7104 12.5063 16.3687C12.1646 16.027 12.1646 15.4729 12.5063 15.1313L17.1376 10.5L12.5063 5.86872C12.1646 5.52701 12.1646 4.973 12.5063 4.63128Z"/>
    </g>

    <g id="ps">
        <path d="M2 12.1333C2 8.58633 2 6.81283 2.69029 5.45806C3.29749 4.26637 4.26637 3.29749 5.45806 2.69029C6.81283 2 8.58633 2 12.1333 2H19.8667C23.4137 2 25.1872 2 26.5419 2.69029C27.7336 3.29749 28.7025 4.26637 29.3097 5.45806C30 6.81283 30 8.58633 30 12.1333V19.8667C30 23.4137 30 25.1872 29.3097 26.5419C28.7025 27.7336 27.7336 28.7025 26.5419 29.3097C25.1872 30 23.4137 30 19.8667 30H12.1333C8.58633 30 6.81283 30 5.45806 29.3097C4.26637 28.7025 3.29749 27.7336 2.69029 26.5419C2 25.1872 2 23.4137 2 19.8667V12.1333Z"
              fill="#001E36"/>
        <path d="M8 22.5162V10.2034C8 10.1197 8.035 10.0718 8.11667 10.0718C9.3223 10.0718 10.5274 10 11.7333 10C13.6902 10 15.809 10.6691 16.5517 12.7162C16.7267 13.2188 16.82 13.7333 16.82 14.2718C16.82 15.3009 16.5867 16.1504 16.12 16.8205C14.8164 18.6923 12.557 18.6632 10.5317 18.6632V22.5043C10.5475 22.618 10.4506 22.6718 10.3567 22.6718H8.14C8.04667 22.6718 8 22.6239 8 22.5162ZM10.5433 12.3812V16.4017C11.3464 16.4605 12.1867 16.4669 12.9583 16.2103C13.8102 15.9645 14.2767 15.2272 14.2767 14.3436C14.3003 13.5907 13.8901 12.8683 13.1917 12.5966C12.4294 12.2796 11.3662 12.2606 10.5433 12.3812Z"
              fill="#31A8FF"/>
        <path d="M24.0967 15.6074C23.7437 15.4213 23.3677 15.2852 22.979 15.2028C22.4796 15.0853 20.5098 14.6737 20.509 15.7037C20.5265 16.2787 21.4393 16.5604 21.8426 16.7247C23.2585 17.2108 24.8607 18.0797 24.8292 19.8264C24.8725 22.0008 22.7657 22.8701 20.9598 22.8703C20.0197 22.88 19.0403 22.7344 18.1799 22.3308C18.0977 22.2873 18.0449 22.1944 18.0484 22.0996V20.019C18.0391 19.9356 18.1287 19.8627 18.1987 19.9227C19.0417 20.4325 20.0409 20.6801 21.0162 20.6933C21.4467 20.6933 22.2999 20.6516 22.2935 20.019C22.2935 19.412 21.2728 19.1329 20.8659 18.9787C20.2761 18.7682 19.7169 18.4765 19.2036 18.1118C18.4862 17.6001 18.0362 16.7797 18.0484 15.8771C18.0442 13.8297 19.9835 12.9107 21.73 12.9103C22.5464 12.9035 23.4232 12.964 24.1832 13.2956C24.2925 13.3277 24.3151 13.4429 24.3147 13.546V15.4918C24.3216 15.6126 24.1875 15.6537 24.0967 15.6074Z"
              fill="#31A8FF"/>
    </g>

    <g id="ae">
        <path d="M2 12.1333C2 8.58633 2 6.81283 2.69029 5.45806C3.29749 4.26637 4.26637 3.29749 5.45806 2.69029C6.81283 2 8.58633 2 12.1333 2H19.8667C23.4137 2 25.1872 2 26.5419 2.69029C27.7336 3.29749 28.7025 4.26637 29.3097 5.45806C30 6.81283 30 8.58633 30 12.1333V19.8667C30 23.4137 30 25.1872 29.3097 26.5419C28.7025 27.7336 27.7336 28.7025 26.5419 29.3097C25.1872 30 23.4137 30 19.8667 30H12.1333C8.58633 30 6.81283 30 5.45806 29.3097C4.26637 28.7025 3.29749 27.7336 2.69029 26.5419C2 25.1872 2 23.4137 2 19.8667V12.1333Z" fill="#00005B"/>
        <path d="M13.7893 19.5638H9.4504L8.56759 22.3819C8.54308 22.4864 8.44685 22.5604 8.34218 22.5553H6.14454C6.01922 22.5553 5.97539 22.4847 6.01306 22.3434L9.76969 11.2926C9.80729 11.1771 9.84483 11.0641 9.88243 10.9163C9.93156 10.6592 9.95672 10.398 9.95756 10.1361C9.9468 10.0587 10.0136 9.99014 10.089 10.0012H13.0756C13.1631 10.0012 13.2131 10.0333 13.2258 10.0975L17.4897 22.3626C17.5272 22.4912 17.4896 22.5554 17.377 22.5553H14.9351C14.8495 22.565 14.7677 22.5063 14.7473 22.4204L13.7893 19.5638ZM10.1266 17.1877H13.0944C12.6068 15.5215 12.0565 13.8773 11.6105 12.1981C11.1051 13.9399 10.6384 15.5553 10.1266 17.1877Z" fill="#9999FF"/>
        <path d="M20.6608 18.4757C20.8335 19.9066 22.0351 20.5888 23.3656 20.5597C24.1159 20.545 24.9177 20.4285 25.6188 20.1448C25.6812 20.0937 25.7127 20.1256 25.7127 20.2412V22.0713C25.7186 22.1665 25.6788 22.2516 25.6 22.3025C24.7286 22.6983 23.7284 22.8177 22.7833 22.8025C19.9655 22.8025 18.0304 20.8171 18.0312 17.9285C18.0238 15.1911 19.7997 12.8817 22.5579 12.8817C24.896 12.8211 26.5147 14.693 26.5212 17.0231C26.5212 17.4474 26.4975 17.8733 26.4461 18.2945C26.4361 18.3813 26.3622 18.4487 26.277 18.4487C24.4097 18.4487 22.5333 18.4757 20.6608 18.4757ZM20.6608 16.7207C21.7015 16.7207 22.7482 16.7575 23.7882 16.7111C23.9445 16.6951 24.0606 16.6654 24.0606 16.5029C24.0389 15.6391 23.3099 14.9286 22.464 14.9617C21.442 14.8983 20.7879 15.7611 20.6608 16.7207Z" fill="#9999FF"/>
    </g>

    <g id="illustrator">
        <path d="M2 12.1333C2 8.58633 2 6.81283 2.69029 5.45806C3.29749 4.26637 4.26637 3.29749 5.45806 2.69029C6.81283 2 8.58633 2 12.1333 2H19.8667C23.4137 2 25.1872 2 26.5419 2.69029C27.7336 3.29749 28.7025 4.26637 29.3097 5.45806C30 6.81283 30 8.58633 30 12.1333V19.8667C30 23.4137 30 25.1872 29.3097 26.5419C28.7025 27.7336 27.7336 28.7025 26.5419 29.3097C25.1872 30 23.4137 30 19.8667 30H12.1333C8.58633 30 6.81283 30 5.45806 29.3097C4.26637 28.7025 3.29749 27.7336 2.69029 26.5419C2 25.1872 2 23.4137 2 19.8667V12.1333Z" fill="#330000"/>
        <path d="M15.5686 19.5963H11.2297L10.3469 22.409C10.3224 22.5135 10.2262 22.5875 10.1215 22.5823H7.92384C7.79851 22.5823 7.75469 22.5117 7.79236 22.3704L11.549 11.2738C11.5866 11.1582 11.6242 11.0266 11.6617 10.8789C11.7109 10.6218 11.736 10.3606 11.7369 10.0987C11.7261 10.0213 11.7941 9.95294 11.8683 9.96378H14.8549C14.9424 9.96378 14.9924 9.9959 15.0051 10.0601L19.269 22.3897C19.3065 22.5182 19.269 22.5824 19.1563 22.5823H16.7144C16.6288 22.5921 16.547 22.5334 16.5266 22.4475L15.5686 19.5963ZM11.9059 17.1689H14.8737C14.3861 15.5027 13.8358 13.8584 13.3898 12.1793C12.9086 13.8613 12.3836 15.5365 11.9059 17.1689Z" fill="#FF9A00"/>
        <path d="M21.8045 12.0058C21.6129 12.0137 21.4219 11.98 21.2438 11.907C21.0658 11.834 20.9048 11.7232 20.7714 11.582C20.6384 11.4346 20.535 11.2618 20.4673 11.0733C20.3996 10.8849 20.3689 10.6846 20.3769 10.4839C20.3701 10.2852 20.4042 10.0873 20.477 9.90305C20.5499 9.71881 20.6598 9.5524 20.7996 9.41468C20.938 9.27839 21.1014 9.17161 21.2804 9.10052C21.4593 9.02942 21.6502 8.99543 21.842 9.00049C22.2929 9.00049 22.6466 9.13856 22.9033 9.41468C23.0329 9.55818 23.1336 9.72648 23.1997 9.90995C23.2657 10.0934 23.2959 10.2885 23.2883 10.4839C23.2962 10.6853 23.2645 10.8864 23.1951 11.075C23.1258 11.2636 23.0201 11.436 22.8845 11.582C22.7428 11.7253 22.5736 11.8369 22.3878 11.9099C22.2019 11.9828 22.0033 12.0155 21.8045 12.0058ZM20.5084 22.3896V13.181C20.5084 13.0654 20.5583 13.0076 20.6587 13.0076H22.9691C23.0691 13.0076 23.1192 13.0654 23.1193 13.181V22.3896C23.1193 22.5182 23.0692 22.5824 22.9691 22.5823H20.6775C20.5648 22.5823 20.5084 22.5181 20.5084 22.3896Z" fill="#FF9A00"/>
    </g>

    <g id="figma">
        <path fill-rule="evenodd" clip-rule="evenodd" d="M16 16C16 13.7909 17.7909 12 20 12C22.2091 12 24 13.7909 24 16C24 18.2091 22.2091 20 20 20C17.7909 20 16 18.2091 16 16Z" fill="#1ABCFE"/>
        <path fill-rule="evenodd" clip-rule="evenodd" d="M8 24C8 21.7909 9.79086 20 12 20H16V24C16 26.2091 14.2091 28 12 28C9.79086 28 8 26.2091 8 24Z" fill="#0ACF83"/>
        <path fill-rule="evenodd" clip-rule="evenodd" d="M16 4V12H20C22.2091 12 24 10.2091 24 8C24 5.79086 22.2091 4 20 4H16Z" fill="#FF7262"/>
        <path fill-rule="evenodd" clip-rule="evenodd" d="M8 8C8 10.2091 9.79086 12 12 12H16V4H12C9.79086 4 8 5.79086 8 8Z" fill="#F24E1E"/>
        <path fill-rule="evenodd" clip-rule="evenodd" d="M8 16C8 18.2091 9.79086 20 12 20H16V12H12C9.79086 12 8 13.7909 8 16Z" fill="#A259FF"/>
    </g>

</svg>